<svg xmlns="http://www.w3.org/2000/svg" xmlns:xlink="http://www.w3.org/1999/xlink" viewBox="0 0 245.2 187.62"><defs><style>.cls-1{fill:none;}.cls-2{fill:url(#linear-gradient);}.cls-3{clip-path:url(#clip-path);}.cls-4{fill:url(#linear-gradient-2);}.cls-5{fill:#634c9f;}</style><linearGradient id="linear-gradient" y1="706.66" x2="180.95" y2="706.66" gradientTransform="matrix(1, 0, 0, -1, 0, 794.33)" gradientUnits="userSpaceOnUse"><stop offset="0.42" stop-color="#9c7bb8"/><stop offset="1" stop-color="#be9fcb"/></linearGradient><clipPath id="clip-path" transform="translate(64.25 8.67)"><path class="cls-1" d="M85,175.12C60.87,163.83-30.94,69.39,10.68,17.67,27.83-3.64,59.47-5.83,80.27,11.93c5.23,4.47,11.23,8.85,17,10.1,7.39,1.61,19.36,1.13,33.28-7.81-14.12,5.69-27.48,2.68-26.15-.57,1.58-4,20.84-14.52,47-6.57C214.58,26.28,161.68,124.32,129.3,135,124,92.82,114.72,74.21,93.73,92.56,68.86,114.3,84.24,161,88,172.5A2.17,2.17,0,0,1,85,175.12Z"/></clipPath><linearGradient id="linear-gradient-2" x1="-64.25" y1="709.18" x2="130.5" y2="709.18" xlink:href="#linear-gradient"/></defs><g id="Layer_2" data-name="Layer 2"><g id="Layer_1-2" data-name="Layer 1"><path id="SVGID" class="cls-2" d="M85,175.12C60.87,163.83-30.94,69.39,10.68,17.67,27.83-3.64,59.47-5.83,80.27,11.93c5.23,4.47,11.23,8.85,17,10.1,7.39,1.61,19.36,1.13,33.28-7.81-14.12,5.69-27.48,2.68-26.15-.57,1.58-4,20.84-14.52,47-6.57C214.58,26.28,161.68,124.32,129.3,135,124,92.82,114.72,74.21,93.73,92.56,68.86,114.3,84.24,161,88,172.5A2.17,2.17,0,0,1,85,175.12Z" transform="translate(64.25 8.67)"/><g class="cls-3"><path class="cls-4" d="M89,174c0-.22-45.56-114.74,41.55-159.79C85.22,31,110.94,3.31,101.53-6S-64.25,2.85-64.25,2.85L-9.91,153.19S85.1,192.51,89,174Z" transform="translate(64.25 8.67)"/></g><path class="cls-5" d="M93.72,92.56c0-.34,19.29-16.84,31.52-10.76s18.33,44.08,4,53.21c-11,7-17.64,2.63-21-1.41a18.35,18.35,0,0,1-3.26-6.1L93.72,92.56Z" transform="translate(64.25 8.67)"/></g></g></svg>